<svg width="1280" height="720" viewBox="0 0 1280 720" fill="none" xmlns="http://www.w3.org/2000/svg">
<path d="M902.823 336.718V350.487H968.025V369.646H902.823V383.565H974.423V405.633H876.797V314.495H974.397V336.718H902.823ZM745.09 344.33C745.09 359.389 741.605 366.893 730.917 369.633C734.912 370.33 738.503 372.489 740.992 375.69C743.48 378.891 744.686 382.904 744.376 386.947V405.629H718.405V391.719C718.405 383.931 715.243 382.304 706.655 382.304H659.628V405.633H633.481V314.495H710.157C735.934 314.495 745.077 320.635 745.077 344.33M659.61 337.213V359.492H709.206C716.495 359.492 718.595 356.102 718.595 347.484C718.595 340.466 715.901 337.213 709.206 337.213H659.61ZM1098.74 344.33C1098.74 359.389 1095.26 366.893 1084.54 369.633C1088.55 370.321 1092.15 372.476 1094.64 375.678C1097.14 378.88 1098.35 382.898 1098.05 386.947V405.629H1072.03V391.719C1072.03 383.931 1068.88 382.304 1060.28 382.304H1013.31V405.633H987.155V314.495H1063.82C1089.64 314.495 1098.76 320.635 1098.76 344.33M1013.32 337.213V359.492H1062.88C1070.16 359.492 1072.26 356.102 1072.26 347.484C1072.26 340.466 1069.57 337.213 1062.88 337.213H1013.32ZM744.38 405.625L793.537 314.495H828.565L876.801 405.629H846.606L837.945 390.466H783.121L774.339 405.629L744.38 405.625ZM828.074 368.532L810.614 336.31L793.537 368.536L828.074 368.532ZM596.629 376.539C596.755 375.529 596.663 374.503 596.359 373.531C596.056 372.56 595.548 371.664 594.869 370.906C594.19 370.147 593.356 369.542 592.424 369.133C591.492 368.723 590.483 368.518 589.465 368.532H541.405V384.882H589.444C594.013 384.882 596.607 381.896 596.607 376.522M593.802 342.454C593.91 341.508 593.817 340.55 593.529 339.642C593.241 338.734 592.765 337.897 592.133 337.186C591.5 336.475 590.724 335.905 589.856 335.514C588.988 335.122 588.047 334.919 587.094 334.916H541.405V349.975H587.099C591.448 349.975 593.806 347.342 593.806 342.471M515.379 405.629V314.495H592.146C611.258 314.495 620.487 322.808 620.487 339.963C620.866 344.11 619.839 348.265 617.571 351.758C615.303 355.251 611.926 357.88 607.983 359.221C618.783 361.153 623.473 367.882 623.473 380.893C623.473 398.474 614.997 405.633 596.117 405.633L515.379 405.629ZM352.62 405.629V314.495H396.408L427.046 371.402L457.702 314.495H502.251V405.629H476.169V340.784H475.08L439.928 405.629H414.203L379.261 340.733H378.62V405.629H352.62ZM268.018 336.718V350.487H333.219V369.646H268.018V383.565H339.669V405.633H242V314.495H339.613V336.718H268.018Z" fill="url(#paint0_linear_5_704)"/>
<path d="M174.582 281.511L80.3956 353.725H61.5434L49 366.298H80.3956L174.582 438.489H206L143.176 366.309H205.699V353.736H143.176L205.989 281.511H174.582Z" fill="#FDFEFE"/>
<defs>
<linearGradient id="paint0_linear_5_704" x1="228.5" y1="360.064" x2="963" y2="360.064" gradientUnits="userSpaceOnUse">
<stop stop-color="#979898" stop-opacity="0"/>
<stop offset="0.163462" stop-color="#FDFEFE"/>
</linearGradient>
</defs>
</svg>
