<svg width="1280" height="720" viewBox="0 0 1280 720" fill="none" xmlns="http://www.w3.org/2000/svg">
<path d="M872.823 336.718V350.487H938.025V369.646H872.823V383.565H944.423V405.633H846.797V314.495H944.397V336.718H872.823ZM715.09 344.33C715.09 359.389 711.605 366.893 700.917 369.633C704.912 370.33 708.503 372.489 710.992 375.69C713.48 378.891 714.686 382.904 714.376 386.947V405.629H688.405V391.719C688.405 383.931 685.243 382.304 676.655 382.304H629.628V405.633H603.481V314.495H680.157C705.934 314.495 715.077 320.635 715.077 344.33M629.61 337.213V359.492H679.206C686.495 359.492 688.595 356.102 688.595 347.484C688.595 340.466 685.901 337.213 679.206 337.213H629.61ZM1068.74 344.33C1068.74 359.389 1065.26 366.893 1054.54 369.633C1058.55 370.321 1062.15 372.476 1064.64 375.678C1067.14 378.88 1068.35 382.898 1068.05 386.947V405.629H1042.03V391.719C1042.03 383.931 1038.88 382.304 1030.28 382.304H983.31V405.633H957.155V314.495H1033.82C1059.64 314.495 1068.76 320.635 1068.76 344.33M983.323 337.213V359.492H1032.88C1040.16 359.492 1042.26 356.102 1042.26 347.484C1042.26 340.466 1039.57 337.213 1032.88 337.213H983.323ZM714.38 405.625L763.537 314.495H798.565L846.801 405.629H816.606L807.945 390.466H753.121L744.339 405.629L714.38 405.625ZM798.074 368.532L780.614 336.31L763.537 368.536L798.074 368.532ZM566.629 376.539C566.755 375.529 566.663 374.503 566.359 373.531C566.056 372.56 565.548 371.664 564.869 370.906C564.19 370.147 563.356 369.542 562.424 369.133C561.492 368.723 560.483 368.518 559.465 368.532H511.405V384.882H559.444C564.013 384.882 566.607 381.896 566.607 376.522M563.802 342.454C563.91 341.508 563.817 340.55 563.529 339.642C563.241 338.734 562.765 337.897 562.133 337.186C561.5 336.475 560.724 335.905 559.856 335.514C558.988 335.122 558.047 334.919 557.094 334.916H511.405V349.975H557.099C561.448 349.975 563.806 347.342 563.806 342.471M485.379 405.629V314.495H562.146C581.258 314.495 590.487 322.808 590.487 339.963C590.866 344.11 589.839 348.265 587.571 351.758C585.303 355.251 581.926 357.88 577.983 359.221C588.783 361.153 593.473 367.882 593.473 380.893C593.473 398.474 584.997 405.633 566.117 405.633L485.379 405.629ZM322.62 405.629V314.495H366.408L397.046 371.402L427.702 314.495H472.251V405.629H446.169V340.784H445.08L409.928 405.629H384.203L349.261 340.733H348.62V405.629H322.62ZM238.018 336.718V350.487H303.219V369.646H238.018V383.565H309.669V405.633H212V314.495H309.613V336.718H238.018Z" fill="url(#paint0_linear_5_694)"/>
<path d="M534.6 269L425.4 352.724H403.543L389 367.302H425.4L534.6 451H571.026L498.187 367.314H570.677V352.737H498.187L571.013 269H534.6Z" fill="#FDFEFE"/>
<defs>
<linearGradient id="paint0_linear_5_694" x1="568.5" y1="360.064" x2="1068.76" y2="360.064" gradientUnits="userSpaceOnUse">
<stop stop-color="#979898" stop-opacity="0"/>
<stop offset="1" stop-color="#FDFEFE"/>
</linearGradient>
</defs>
</svg>
