<svg width="1280" height="720" viewBox="0 0 1280 720" fill="none" xmlns="http://www.w3.org/2000/svg">
<path d="M952.823 336.718V350.487H1018.03V369.646H952.823V383.565H1024.42V405.633H926.797V314.495H1024.4V336.718H952.823ZM795.09 344.33C795.09 359.389 791.605 366.893 780.917 369.633C784.912 370.33 788.503 372.489 790.992 375.69C793.48 378.891 794.686 382.904 794.376 386.947V405.629H768.405V391.719C768.405 383.931 765.243 382.304 756.655 382.304H709.628V405.633H683.481V314.495H760.157C785.934 314.495 795.077 320.635 795.077 344.33M709.61 337.213V359.492H759.206C766.495 359.492 768.595 356.102 768.595 347.484C768.595 340.466 765.901 337.213 759.206 337.213H709.61ZM1148.74 344.33C1148.74 359.389 1145.26 366.893 1134.54 369.633C1138.55 370.321 1142.15 372.476 1144.64 375.678C1147.14 378.88 1148.35 382.898 1148.05 386.947V405.629H1122.03V391.719C1122.03 383.931 1118.88 382.304 1110.28 382.304H1063.31V405.633H1037.15V314.495H1113.82C1139.64 314.495 1148.76 320.635 1148.76 344.33M1063.32 337.213V359.492H1112.88C1120.16 359.492 1122.26 356.102 1122.26 347.484C1122.26 340.466 1119.57 337.213 1112.88 337.213H1063.32ZM794.38 405.625L843.537 314.495H878.565L926.801 405.629H896.606L887.945 390.466H833.121L824.339 405.629L794.38 405.625ZM878.074 368.532L860.614 336.31L843.537 368.536L878.074 368.532ZM646.629 376.539C646.755 375.529 646.663 374.503 646.359 373.531C646.056 372.56 645.548 371.664 644.869 370.906C644.19 370.147 643.356 369.542 642.424 369.133C641.492 368.723 640.483 368.518 639.465 368.532H591.405V384.882H639.444C644.013 384.882 646.607 381.896 646.607 376.522M643.802 342.454C643.91 341.508 643.817 340.55 643.529 339.642C643.241 338.734 642.765 337.897 642.133 337.186C641.5 336.475 640.724 335.905 639.856 335.514C638.988 335.122 638.047 334.919 637.094 334.916H591.405V349.975H637.099C641.448 349.975 643.806 347.342 643.806 342.471M565.379 405.629V314.495H642.146C661.258 314.495 670.487 322.808 670.487 339.963C670.866 344.11 669.839 348.265 667.571 351.758C665.303 355.251 661.926 357.88 657.983 359.221C668.783 361.153 673.473 367.882 673.473 380.893C673.473 398.474 664.997 405.633 646.117 405.633L565.379 405.629ZM402.62 405.629V314.495H446.408L477.046 371.402L507.702 314.495H552.251V405.629H526.169V340.784H525.08L489.928 405.629H464.203L429.261 340.733H428.62V405.629H402.62ZM318.018 336.718V350.487H383.219V369.646H318.018V383.565H389.669V405.633H292V314.495H389.613V336.718H318.018Z" fill="url(#paint0_linear_5_696)"/>
<path d="M224.582 281.511L130.396 353.725H111.543L99 366.298H130.396L224.582 438.489H256L193.176 366.309H255.699V353.736H193.176L255.989 281.511H224.582Z" fill="#FDFEFE"/>
<defs>
<linearGradient id="paint0_linear_5_696" x1="278.5" y1="360.064" x2="1013" y2="360.064" gradientUnits="userSpaceOnUse">
<stop stop-color="#979898" stop-opacity="0"/>
<stop offset="0.0001" stop-color="#FDFEFE"/>
</linearGradient>
</defs>
</svg>
